<svg id="svg" version="1.1" xmlns="http://www.w3.org/2000/svg" xmlns:xlink="http://www.w3.org/1999/xlink" width="400" height="400" viewBox="0, 0, 400,400"><g id="svgg"><path id="path0" d="M115.844 89.467 C 114.988 89.570,113.908 89.895,113.444 90.189 C 112.980 90.483,111.835 90.846,110.900 90.997 C 109.965 91.147,109.200 91.417,109.200 91.596 C 109.200 91.775,108.674 92.105,108.032 92.329 C 106.682 92.800,105.918 93.402,102.965 96.327 C 100.830 98.442,100.211 99.325,98.989 102.000 C 98.638 102.770,98.091 103.967,97.775 104.660 C 96.839 106.712,96.997 116.525,98.000 118.600 C 98.425 119.480,98.783 120.470,98.795 120.800 C 98.808 121.130,99.170 121.850,99.600 122.400 C 100.030 122.950,100.386 123.623,100.391 123.895 C 100.396 124.167,101.565 125.517,102.990 126.895 C 106.532 130.321,107.115 130.800,107.746 130.800 C 108.046 130.800,108.750 131.160,109.309 131.600 C 109.869 132.040,110.617 132.400,110.973 132.400 C 111.329 132.400,112.644 132.760,113.896 133.200 C 116.802 134.221,125.898 134.361,127.717 133.412 C 128.331 133.092,129.500 132.705,130.314 132.552 C 134.133 131.836,140.961 126.598,142.114 123.500 C 142.258 123.115,142.561 122.800,142.787 122.800 C 143.014 122.800,143.200 122.478,143.200 122.085 C 143.200 121.691,143.592 120.656,144.071 119.785 C 145.466 117.246,145.421 106.810,144.000 103.400 C 142.056 98.734,136.622 92.400,134.562 92.400 C 134.307 92.400,133.878 92.135,133.609 91.811 C 133.340 91.486,132.463 91.106,131.660 90.966 C 130.857 90.825,129.774 90.443,129.254 90.116 C 128.279 89.503,119.188 89.063,115.844 89.467 M245.000 150.855 C 244.340 151.068,242.450 151.488,240.800 151.790 C 237.895 152.321,234.431 153.355,233.200 154.059 C 232.870 154.248,232.150 154.581,231.600 154.801 C 231.050 155.020,230.330 155.383,230.000 155.608 C 229.670 155.832,228.815 156.285,228.100 156.613 C 227.385 156.942,226.800 157.388,226.800 157.605 C 226.800 157.822,226.612 158.000,226.382 158.000 C 224.855 158.000,215.896 167.238,214.034 170.733 C 213.558 171.625,213.503 171.636,212.768 170.971 C 212.057 170.328,212.000 169.653,212.000 161.938 L 212.000 153.600 190.399 153.600 L 168.798 153.600 168.899 219.700 L 169.000 285.800 190.400 285.800 L 211.800 285.800 212.000 244.582 C 212.186 206.200,212.248 203.291,212.900 202.296 C 213.285 201.709,213.600 200.886,213.600 200.468 C 213.600 200.050,213.960 199.250,214.400 198.691 C 214.840 198.131,215.200 197.532,215.200 197.358 C 215.200 196.299,221.774 188.800,222.703 188.800 C 222.908 188.800,223.402 188.440,223.800 188.000 C 224.198 187.560,224.775 187.200,225.083 187.200 C 225.390 187.200,226.307 186.857,227.121 186.438 C 232.150 183.846,242.095 183.966,247.221 186.681 C 251.376 188.881,255.848 193.820,256.656 197.102 C 256.805 197.706,257.149 198.560,257.420 199.000 C 257.691 199.440,258.036 200.700,258.186 201.800 C 258.336 202.900,258.715 204.571,259.029 205.514 C 259.508 206.951,259.601 213.514,259.606 246.114 C 259.609 267.501,259.756 285.227,259.932 285.504 C 260.184 285.900,264.752 285.985,281.426 285.904 L 302.600 285.800 302.600 241.600 C 302.600 200.680,302.548 197.223,301.900 195.016 C 301.515 193.705,301.199 191.905,301.198 191.016 C 301.196 190.127,300.924 188.881,300.594 188.247 C 300.263 187.613,299.877 186.353,299.735 185.447 C 299.594 184.541,299.146 183.173,298.739 182.406 C 298.333 181.639,298.000 180.626,298.000 180.155 C 298.000 179.684,297.742 179.083,297.426 178.821 C 297.110 178.559,296.726 177.772,296.574 177.072 C 296.421 176.373,295.959 175.371,295.548 174.846 C 295.137 174.321,294.800 173.750,294.800 173.577 C 294.800 173.242,291.767 168.618,290.786 167.457 C 287.435 163.494,283.217 159.776,280.144 158.078 C 279.625 157.791,279.200 157.400,279.200 157.210 C 279.200 157.019,278.672 156.748,278.028 156.606 C 277.383 156.464,276.641 156.090,276.379 155.774 C 276.117 155.458,275.719 155.200,275.495 155.200 C 275.271 155.200,274.348 154.867,273.444 154.460 C 270.548 153.156,267.881 152.354,264.600 151.800 C 262.840 151.504,260.771 151.067,260.003 150.830 C 258.289 150.303,246.656 150.322,245.000 150.855 M99.470 153.863 C 98.688 154.646,99.187 285.165,99.974 285.586 C 101.180 286.231,141.244 286.150,142.126 285.500 C 142.761 285.033,142.799 280.720,142.703 219.400 L 142.600 153.800 121.170 153.697 C 109.384 153.640,99.619 153.715,99.470 153.863 " stroke="none" fill="#fbfbfb" fill-rule="evenodd"></path><path id="path1" d="M174.400 0.400 C 174.400 0.644,172.544 0.800,169.633 0.800 C 164.543 0.800,163.600 0.963,163.600 1.843 C 163.600 2.280,162.776 2.400,159.763 2.400 C 156.262 2.400,155.907 2.470,155.716 3.200 C 155.530 3.910,155.170 4.000,152.516 4.000 C 149.862 4.000,149.502 4.090,149.316 4.800 C 149.134 5.494,148.770 5.600,146.557 5.600 C 144.440 5.600,143.922 5.736,143.507 6.400 C 143.102 7.050,142.574 7.200,140.704 7.200 C 139.001 7.200,138.400 7.345,138.400 7.757 C 138.400 8.496,137.514 8.800,135.367 8.800 C 134.136 8.800,133.600 8.966,133.600 9.349 C 133.600 9.718,132.922 9.963,131.533 10.097 C 130.270 10.218,129.280 10.549,128.989 10.948 C 128.723 11.311,127.955 11.600,127.256 11.600 C 126.267 11.600,126.000 11.770,126.000 12.400 C 126.000 13.105,125.733 13.200,123.763 13.200 C 121.862 13.200,121.494 13.320,121.316 14.000 C 121.152 14.627,120.770 14.800,119.553 14.800 C 118.267 14.800,118.000 14.937,118.000 15.600 C 118.000 16.267,117.733 16.400,116.400 16.400 C 115.067 16.400,114.800 16.533,114.800 17.200 C 114.800 17.867,114.533 18.000,113.200 18.000 C 112.133 18.000,111.333 18.267,110.800 18.800 C 110.360 19.240,109.730 19.600,109.400 19.600 C 109.070 19.600,108.440 19.960,108.000 20.400 C 107.560 20.840,106.883 21.200,106.496 21.200 C 106.109 21.200,105.568 21.560,105.293 22.000 C 104.974 22.510,104.360 22.800,103.597 22.800 C 102.667 22.800,102.400 22.978,102.400 23.600 C 102.400 24.267,102.133 24.400,100.800 24.400 C 99.667 24.400,99.200 24.570,99.200 24.982 C 99.200 25.333,98.631 25.670,97.768 25.832 C 96.981 25.980,96.241 26.348,96.125 26.651 C 96.009 26.953,95.670 27.200,95.371 27.200 C 95.073 27.200,94.635 27.560,94.400 28.000 C 94.143 28.480,93.562 28.800,92.948 28.800 C 92.278 28.800,91.856 29.063,91.726 29.562 C 91.600 30.042,91.036 30.417,90.202 30.573 C 89.473 30.710,88.776 31.087,88.651 31.411 C 88.527 31.735,88.059 32.000,87.613 32.000 C 87.067 32.000,86.800 32.263,86.800 32.800 C 86.800 33.311,86.533 33.600,86.062 33.600 C 85.656 33.600,84.998 33.960,84.600 34.400 C 84.202 34.840,83.527 35.200,83.101 35.200 C 82.662 35.200,82.234 35.547,82.116 36.000 C 82.000 36.443,81.570 36.800,81.153 36.800 C 80.667 36.800,80.400 37.083,80.400 37.600 C 80.400 38.248,80.133 38.400,79.000 38.400 C 77.867 38.400,77.600 38.552,77.600 39.200 C 77.600 39.733,77.333 40.000,76.800 40.000 C 76.267 40.000,76.000 40.267,76.000 40.800 C 76.000 41.333,75.733 41.600,75.200 41.600 C 74.756 41.600,74.400 41.867,74.400 42.200 C 74.400 42.530,74.170 42.800,73.889 42.800 C 73.608 42.800,73.065 43.165,72.683 43.611 C 72.301 44.057,71.451 44.530,70.794 44.661 C 70.137 44.793,69.600 45.127,69.600 45.403 C 69.600 45.680,69.240 46.001,68.800 46.116 C 68.360 46.231,68.000 46.591,68.000 46.916 C 68.000 47.241,67.640 47.601,67.200 47.716 C 66.760 47.831,66.400 48.212,66.400 48.563 C 66.400 48.933,66.065 49.200,65.600 49.200 C 65.067 49.200,64.800 49.467,64.800 50.000 C 64.800 50.533,64.533 50.800,64.000 50.800 C 63.467 50.800,63.200 51.067,63.200 51.600 C 63.200 52.133,62.933 52.400,62.400 52.400 C 61.883 52.400,61.600 52.667,61.600 53.153 C 61.600 53.570,61.243 54.000,60.800 54.116 C 60.360 54.231,60.000 54.612,60.000 54.963 C 60.000 55.313,59.730 55.600,59.400 55.600 C 59.067 55.600,58.800 55.956,58.800 56.400 C 58.800 56.933,58.533 57.200,58.000 57.200 C 57.467 57.200,57.200 57.467,57.200 58.000 C 57.200 58.533,56.933 58.800,56.400 58.800 C 55.960 58.800,55.600 59.049,55.600 59.353 C 55.600 59.658,55.240 60.001,54.800 60.116 C 54.360 60.231,54.000 60.612,54.000 60.963 C 54.000 61.333,53.665 61.600,53.200 61.600 C 52.667 61.600,52.400 61.867,52.400 62.400 C 52.400 62.933,52.133 63.200,51.600 63.200 C 51.067 63.200,50.800 63.467,50.800 64.000 C 50.800 64.533,50.533 64.800,50.000 64.800 C 49.483 64.800,49.200 65.067,49.200 65.553 C 49.200 65.970,48.843 66.400,48.400 66.516 C 47.960 66.631,47.600 67.012,47.600 67.363 C 47.600 67.713,47.324 68.000,46.987 68.000 C 46.651 68.000,46.259 68.315,46.118 68.700 C 45.976 69.085,45.622 69.544,45.330 69.720 C 45.039 69.896,44.800 70.223,44.800 70.447 C 44.800 70.670,44.350 71.443,43.800 72.164 C 43.250 72.886,42.800 73.684,42.800 73.938 C 42.800 74.192,42.530 74.400,42.200 74.400 C 41.867 74.400,41.600 74.756,41.600 75.200 C 41.600 75.733,41.333 76.000,40.800 76.000 C 40.267 76.000,40.000 76.267,40.000 76.800 C 40.000 77.333,39.733 77.600,39.200 77.600 C 38.552 77.600,38.400 77.867,38.400 79.000 C 38.400 80.133,38.248 80.400,37.600 80.400 C 37.083 80.400,36.800 80.667,36.800 81.153 C 36.800 81.570,36.443 82.000,36.000 82.116 C 35.547 82.234,35.200 82.662,35.200 83.101 C 35.200 83.527,34.840 84.202,34.400 84.600 C 33.960 84.998,33.600 85.656,33.600 86.062 C 33.600 86.533,33.311 86.800,32.800 86.800 C 32.263 86.800,32.000 87.067,32.000 87.613 C 32.000 88.059,31.735 88.527,31.411 88.651 C 31.087 88.776,30.707 89.490,30.566 90.239 C 30.383 91.216,30.098 91.600,29.555 91.600 C 28.985 91.600,28.800 91.890,28.800 92.786 C 28.800 93.562,28.524 94.120,28.000 94.400 C 27.560 94.635,27.200 95.073,27.200 95.371 C 27.200 95.670,26.953 96.009,26.651 96.125 C 26.348 96.241,25.980 96.981,25.832 97.768 C 25.670 98.631,25.333 99.200,24.982 99.200 C 24.570 99.200,24.400 99.667,24.400 100.800 C 24.400 102.133,24.267 102.400,23.600 102.400 C 22.978 102.400,22.800 102.667,22.800 103.597 C 22.800 104.360,22.510 104.974,22.000 105.293 C 21.560 105.568,21.200 106.115,21.200 106.509 C 21.200 106.903,20.941 107.324,20.624 107.446 C 20.308 107.567,19.930 108.210,19.784 108.874 C 19.638 109.538,19.177 110.423,18.759 110.841 C 18.295 111.305,18.000 112.159,18.000 113.037 C 18.000 114.138,17.813 114.524,17.200 114.684 C 16.573 114.848,16.400 115.230,16.400 116.447 C 16.400 117.733,16.263 118.000,15.600 118.000 C 14.937 118.000,14.800 118.267,14.800 119.553 C 14.800 120.770,14.627 121.152,14.000 121.316 C 13.348 121.487,13.200 121.862,13.200 123.348 C 13.200 124.762,13.020 125.268,12.400 125.600 C 11.864 125.887,11.600 126.438,11.600 127.270 C 11.600 127.956,11.308 128.725,10.948 128.989 C 10.549 129.280,10.218 130.270,10.097 131.533 C 9.963 132.922,9.718 133.600,9.349 133.600 C 8.966 133.600,8.800 134.136,8.800 135.367 C 8.800 137.514,8.496 138.400,7.757 138.400 C 7.344 138.400,7.200 139.008,7.200 140.753 C 7.200 142.770,7.086 143.137,6.400 143.316 C 5.696 143.500,5.600 143.862,5.600 146.316 C 5.600 148.770,5.504 149.132,4.800 149.316 C 4.090 149.502,4.000 149.862,4.000 152.516 C 4.000 155.170,3.910 155.530,3.200 155.716 C 2.470 155.907,2.400 156.262,2.400 159.763 C 2.400 162.776,2.280 163.600,1.843 163.600 C 0.963 163.600,0.800 164.543,0.800 169.633 C 0.800 172.544,0.644 174.400,0.400 174.400 C 0.138 174.400,0.000 183.200,0.000 200.000 C 0.000 216.800,0.138 225.600,0.400 225.600 C 0.644 225.600,0.800 227.467,0.800 230.400 C 0.800 234.667,0.889 235.289,1.600 236.000 C 2.265 236.665,2.400 237.333,2.400 239.967 C 2.400 243.480,2.616 244.400,3.443 244.400 C 3.870 244.400,4.000 245.108,4.000 247.437 C 4.000 250.138,4.089 250.498,4.800 250.684 C 5.504 250.868,5.600 251.230,5.600 253.684 C 5.600 256.138,5.696 256.500,6.400 256.684 C 7.086 256.863,7.200 257.230,7.200 259.247 C 7.200 260.992,7.344 261.600,7.757 261.600 C 8.496 261.600,8.800 262.486,8.800 264.633 C 8.800 265.864,8.966 266.400,9.349 266.400 C 9.718 266.400,9.963 267.078,10.097 268.467 C 10.218 269.730,10.549 270.720,10.948 271.011 C 11.308 271.275,11.600 272.044,11.600 272.730 C 11.600 273.562,11.864 274.113,12.400 274.400 C 13.020 274.732,13.200 275.238,13.200 276.652 C 13.200 278.138,13.348 278.513,14.000 278.684 C 14.627 278.848,14.800 279.230,14.800 280.447 C 14.800 281.733,14.937 282.000,15.600 282.000 C 16.267 282.000,16.400 282.267,16.400 283.600 C 16.400 284.933,16.533 285.200,17.200 285.200 C 17.867 285.200,18.000 285.467,18.000 286.800 C 18.000 287.867,18.267 288.667,18.800 289.200 C 19.240 289.640,19.600 290.270,19.600 290.600 C 19.600 290.930,19.960 291.560,20.400 292.000 C 20.840 292.440,21.200 293.117,21.200 293.504 C 21.200 293.891,21.560 294.432,22.000 294.707 C 22.510 295.026,22.800 295.640,22.800 296.403 C 22.800 297.333,22.978 297.600,23.600 297.600 C 24.267 297.600,24.400 297.867,24.400 299.200 C 24.400 300.333,24.570 300.800,24.982 300.800 C 25.328 300.800,25.668 301.356,25.821 302.172 C 25.963 302.927,26.331 303.641,26.639 303.760 C 26.948 303.878,27.200 304.244,27.200 304.573 C 27.200 304.903,27.560 305.365,28.000 305.600 C 28.480 305.857,28.800 306.438,28.800 307.052 C 28.800 307.722,29.063 308.144,29.562 308.274 C 30.042 308.400,30.417 308.964,30.573 309.798 C 30.710 310.527,31.087 311.224,31.411 311.349 C 31.735 311.473,32.000 311.941,32.000 312.387 C 32.000 312.933,32.263 313.200,32.800 313.200 C 33.311 313.200,33.600 313.467,33.600 313.938 C 33.600 314.344,33.960 315.002,34.400 315.400 C 34.840 315.798,35.200 316.473,35.200 316.899 C 35.200 317.338,35.547 317.766,36.000 317.884 C 36.443 318.000,36.800 318.430,36.800 318.847 C 36.800 319.333,37.083 319.600,37.600 319.600 C 38.228 319.600,38.400 319.867,38.400 320.837 C 38.400 321.738,38.617 322.132,39.200 322.284 C 39.643 322.400,40.000 322.830,40.000 323.247 C 40.000 323.733,40.283 324.000,40.800 324.000 C 41.333 324.000,41.600 324.267,41.600 324.800 C 41.600 325.244,41.867 325.600,42.200 325.600 C 42.530 325.600,42.800 325.808,42.800 326.062 C 42.800 326.316,43.250 327.114,43.800 327.836 C 44.350 328.557,44.800 329.344,44.800 329.586 C 44.800 329.827,45.070 330.129,45.400 330.255 C 45.730 330.382,46.000 330.753,46.000 331.080 C 46.000 331.407,46.360 331.769,46.800 331.884 C 47.240 331.999,47.600 332.359,47.600 332.684 C 47.600 333.009,47.960 333.369,48.400 333.484 C 48.843 333.600,49.200 334.030,49.200 334.447 C 49.200 334.933,49.483 335.200,50.000 335.200 C 50.533 335.200,50.800 335.467,50.800 336.000 C 50.800 336.533,51.067 336.800,51.600 336.800 C 52.133 336.800,52.400 337.067,52.400 337.600 C 52.400 338.133,52.667 338.400,53.200 338.400 C 53.665 338.400,54.000 338.667,54.000 339.037 C 54.000 339.388,54.360 339.769,54.800 339.884 C 55.240 339.999,55.600 340.342,55.600 340.647 C 55.600 340.951,55.960 341.200,56.400 341.200 C 56.933 341.200,57.200 341.467,57.200 342.000 C 57.200 342.533,57.467 342.800,58.000 342.800 C 58.533 342.800,58.800 343.067,58.800 343.600 C 58.800 344.044,59.067 344.400,59.400 344.400 C 59.730 344.400,60.000 344.687,60.000 345.037 C 60.000 345.388,60.360 345.769,60.800 345.884 C 61.243 346.000,61.600 346.430,61.600 346.847 C 61.600 347.333,61.883 347.600,62.400 347.600 C 62.933 347.600,63.200 347.867,63.200 348.400 C 63.200 348.933,63.467 349.200,64.000 349.200 C 64.533 349.200,64.800 349.467,64.800 350.000 C 64.800 350.533,65.067 350.800,65.600 350.800 C 66.065 350.800,66.400 351.067,66.400 351.437 C 66.400 351.788,66.760 352.169,67.200 352.284 C 67.640 352.399,68.000 352.730,68.000 353.020 C 68.000 353.309,68.360 353.660,68.800 353.800 C 69.240 353.940,69.600 354.223,69.600 354.430 C 69.600 354.637,70.306 355.089,71.169 355.434 C 72.032 355.780,72.837 356.318,72.957 356.631 C 73.077 356.944,73.451 357.200,73.787 357.200 C 74.124 357.200,74.400 357.470,74.400 357.800 C 74.400 358.133,74.756 358.400,75.200 358.400 C 75.733 358.400,76.000 358.667,76.000 359.200 C 76.000 359.717,76.267 360.000,76.753 360.000 C 77.170 360.000,77.600 360.357,77.716 360.800 C 77.868 361.383,78.262 361.600,79.163 361.600 C 80.133 361.600,80.400 361.772,80.400 362.400 C 80.400 362.917,80.667 363.200,81.153 363.200 C 81.570 363.200,82.000 363.557,82.116 364.000 C 82.257 364.540,82.662 364.800,83.359 364.800 C 83.960 364.800,84.603 365.135,84.893 365.600 C 85.168 366.040,85.709 366.400,86.096 366.400 C 86.533 366.400,86.800 366.703,86.800 367.200 C 86.800 367.737,87.067 368.000,87.613 368.000 C 88.059 368.000,88.527 368.265,88.651 368.589 C 88.776 368.913,89.473 369.290,90.202 369.427 C 91.036 369.583,91.600 369.958,91.726 370.438 C 91.856 370.937,92.278 371.200,92.948 371.200 C 93.562 371.200,94.143 371.520,94.400 372.000 C 94.635 372.440,95.097 372.800,95.427 372.800 C 95.756 372.800,96.122 373.052,96.240 373.361 C 96.359 373.669,97.073 374.037,97.828 374.179 C 98.644 374.332,99.200 374.672,99.200 375.018 C 99.200 375.430,99.667 375.600,100.800 375.600 C 102.133 375.600,102.400 375.733,102.400 376.400 C 102.400 377.067,102.667 377.200,104.000 377.200 C 105.333 377.200,105.600 377.333,105.600 378.000 C 105.600 378.622,105.867 378.800,106.797 378.800 C 107.560 378.800,108.174 379.090,108.493 379.600 C 108.768 380.040,109.219 380.400,109.496 380.400 C 109.773 380.400,110.360 380.760,110.800 381.200 C 111.333 381.733,112.133 382.000,113.200 382.000 C 114.533 382.000,114.800 382.133,114.800 382.800 C 114.800 383.467,115.067 383.600,116.400 383.600 C 117.733 383.600,118.000 383.733,118.000 384.400 C 118.000 385.063,118.267 385.200,119.553 385.200 C 120.770 385.200,121.152 385.373,121.316 386.000 C 121.494 386.680,121.862 386.800,123.763 386.800 C 125.733 386.800,126.000 386.895,126.000 387.600 C 126.000 388.245,126.267 388.400,127.380 388.400 C 128.241 388.400,128.898 388.646,129.126 389.054 C 129.362 389.476,130.217 389.777,131.546 389.904 C 132.925 390.037,133.600 390.282,133.600 390.651 C 133.600 391.034,134.136 391.200,135.367 391.200 C 137.514 391.200,138.400 391.504,138.400 392.243 C 138.400 392.656,139.008 392.800,140.753 392.800 C 142.770 392.800,143.137 392.914,143.316 393.600 C 143.500 394.304,143.862 394.400,146.316 394.400 C 148.770 394.400,149.132 394.496,149.316 395.200 C 149.502 395.910,149.862 396.000,152.516 396.000 C 155.170 396.000,155.530 396.090,155.716 396.800 C 155.906 397.526,156.262 397.600,159.563 397.600 C 162.667 397.600,163.317 397.717,164.000 398.400 C 164.711 399.111,165.333 399.200,169.600 399.200 C 172.533 399.200,174.400 399.356,174.400 399.600 C 174.400 399.863,183.200 400.000,200.000 400.000 C 216.800 400.000,225.600 399.863,225.600 399.600 C 225.600 399.356,227.467 399.200,230.400 399.200 C 234.667 399.200,235.289 399.111,236.000 398.400 C 236.665 397.735,237.333 397.600,239.967 397.600 C 243.480 397.600,244.400 397.384,244.400 396.557 C 244.400 396.130,245.108 396.000,247.437 396.000 C 250.138 396.000,250.498 395.911,250.684 395.200 C 250.868 394.496,251.230 394.400,253.684 394.400 C 256.138 394.400,256.500 394.304,256.684 393.600 C 256.863 392.914,257.230 392.800,259.247 392.800 C 260.992 392.800,261.600 392.656,261.600 392.243 C 261.600 391.504,262.486 391.200,264.633 391.200 C 265.864 391.200,266.400 391.034,266.400 390.651 C 266.400 390.282,267.075 390.037,268.454 389.904 C 269.783 389.777,270.638 389.476,270.874 389.054 C 271.101 388.648,271.758 388.400,272.606 388.400 C 273.562 388.400,274.100 388.160,274.400 387.600 C 274.732 386.980,275.238 386.800,276.652 386.800 C 278.138 386.800,278.513 386.652,278.684 386.000 C 278.848 385.373,279.230 385.200,280.447 385.200 C 281.733 385.200,282.000 385.063,282.000 384.400 C 282.000 383.737,282.267 383.600,283.553 383.600 C 284.770 383.600,285.152 383.427,285.316 382.800 C 285.475 382.190,285.862 382.000,286.940 382.000 C 287.861 382.000,288.537 381.742,288.877 381.261 C 289.165 380.854,290.058 380.399,290.861 380.250 C 291.665 380.101,292.424 379.713,292.549 379.389 C 292.673 379.065,293.097 378.800,293.491 378.800 C 293.885 378.800,294.432 378.440,294.707 378.000 C 295.026 377.490,295.640 377.200,296.403 377.200 C 297.333 377.200,297.600 377.022,297.600 376.400 C 297.600 375.733,297.867 375.600,299.200 375.600 C 300.333 375.600,300.800 375.430,300.800 375.018 C 300.800 374.672,301.356 374.332,302.172 374.179 C 302.927 374.037,303.641 373.669,303.760 373.361 C 303.878 373.052,304.244 372.800,304.573 372.800 C 304.903 372.800,305.365 372.440,305.600 372.000 C 305.880 371.476,306.438 371.200,307.214 371.200 C 308.110 371.200,308.400 371.015,308.400 370.445 C 308.400 369.902,308.784 369.617,309.761 369.434 C 310.510 369.293,311.224 368.913,311.349 368.589 C 311.473 368.265,311.941 368.000,312.387 368.000 C 312.933 368.000,313.200 367.737,313.200 367.200 C 313.200 366.667,313.467 366.400,314.000 366.400 C 314.440 366.400,315.160 366.040,315.600 365.600 C 316.040 365.160,316.687 364.800,317.037 364.800 C 317.388 364.800,317.769 364.440,317.884 364.000 C 318.000 363.557,318.430 363.200,318.847 363.200 C 319.333 363.200,319.600 362.917,319.600 362.400 C 319.600 361.772,319.867 361.600,320.837 361.600 C 321.738 361.600,322.132 361.383,322.284 360.800 C 322.400 360.357,322.830 360.000,323.247 360.000 C 323.733 360.000,324.000 359.717,324.000 359.200 C 324.000 358.667,324.267 358.400,324.800 358.400 C 325.244 358.400,325.600 358.133,325.600 357.800 C 325.600 357.470,325.878 357.200,326.217 357.200 C 326.557 357.200,327.320 356.750,327.913 356.200 C 328.507 355.650,329.224 355.200,329.508 355.200 C 329.793 355.200,330.122 354.948,330.240 354.639 C 330.359 354.331,330.803 353.988,331.228 353.877 C 331.652 353.766,332.000 353.409,332.000 353.084 C 332.000 352.759,332.360 352.399,332.800 352.284 C 333.240 352.169,333.600 351.788,333.600 351.437 C 333.600 351.067,333.935 350.800,334.400 350.800 C 334.933 350.800,335.200 350.533,335.200 350.000 C 335.200 349.467,335.467 349.200,336.000 349.200 C 336.533 349.200,336.800 348.933,336.800 348.400 C 336.800 347.867,337.067 347.600,337.600 347.600 C 338.117 347.600,338.400 347.333,338.400 346.847 C 338.400 346.430,338.757 346.000,339.200 345.884 C 339.640 345.769,340.000 345.388,340.000 345.037 C 340.000 344.687,340.270 344.400,340.600 344.400 C 340.933 344.400,341.200 344.044,341.200 343.600 C 341.200 343.067,341.467 342.800,342.000 342.800 C 342.533 342.800,342.800 342.533,342.800 342.000 C 342.800 341.467,343.067 341.200,343.600 341.200 C 344.040 341.200,344.400 340.951,344.400 340.647 C 344.400 340.342,344.760 339.999,345.200 339.884 C 345.640 339.769,346.000 339.388,346.000 339.037 C 346.000 338.667,346.335 338.400,346.800 338.400 C 347.333 338.400,347.600 338.133,347.600 337.600 C 347.600 337.067,347.867 336.800,348.400 336.800 C 348.933 336.800,349.200 336.533,349.200 336.000 C 349.200 335.467,349.467 335.200,350.000 335.200 C 350.517 335.200,350.800 334.933,350.800 334.447 C 350.800 334.030,351.157 333.600,351.600 333.484 C 352.040 333.369,352.400 333.009,352.400 332.684 C 352.400 332.359,352.760 331.999,353.200 331.884 C 353.640 331.769,354.000 331.388,354.000 331.037 C 354.000 330.687,354.248 330.400,354.550 330.400 C 354.853 330.400,355.207 329.863,355.339 329.206 C 355.470 328.549,355.943 327.699,356.389 327.317 C 356.835 326.935,357.200 326.392,357.200 326.111 C 357.200 325.830,357.470 325.600,357.800 325.600 C 358.133 325.600,358.400 325.244,358.400 324.800 C 358.400 324.267,358.667 324.000,359.200 324.000 C 359.717 324.000,360.000 323.733,360.000 323.247 C 360.000 322.830,360.357 322.400,360.800 322.284 C 361.383 322.132,361.600 321.738,361.600 320.837 C 361.600 319.867,361.772 319.600,362.400 319.600 C 362.917 319.600,363.200 319.333,363.200 318.847 C 363.200 318.430,363.557 318.000,364.000 317.884 C 364.440 317.769,364.800 317.388,364.800 317.037 C 364.800 316.687,365.160 316.040,365.600 315.600 C 366.040 315.160,366.400 314.440,366.400 314.000 C 366.400 313.467,366.667 313.200,367.200 313.200 C 367.737 313.200,368.000 312.933,368.000 312.387 C 368.000 311.941,368.265 311.473,368.589 311.349 C 368.913 311.224,369.290 310.527,369.427 309.798 C 369.583 308.964,369.958 308.400,370.438 308.274 C 370.937 308.144,371.200 307.722,371.200 307.052 C 371.200 306.438,371.520 305.857,372.000 305.600 C 372.440 305.365,372.800 304.903,372.800 304.573 C 372.800 304.244,373.052 303.878,373.361 303.760 C 373.669 303.641,374.037 302.927,374.179 302.172 C 374.332 301.356,374.672 300.800,375.018 300.800 C 375.430 300.800,375.600 300.333,375.600 299.200 C 375.600 297.867,375.733 297.600,376.400 297.600 C 377.022 297.600,377.200 297.333,377.200 296.403 C 377.200 295.640,377.490 295.026,378.000 294.707 C 378.440 294.432,378.800 293.891,378.800 293.504 C 378.800 293.117,379.160 292.440,379.600 292.000 C 380.040 291.560,380.400 290.930,380.400 290.600 C 380.400 290.270,380.760 289.640,381.200 289.200 C 381.703 288.697,382.000 287.867,382.000 286.963 C 382.000 285.862,382.187 285.476,382.800 285.316 C 383.427 285.152,383.600 284.770,383.600 283.553 C 383.600 282.267,383.737 282.000,384.400 282.000 C 385.063 282.000,385.200 281.733,385.200 280.447 C 385.200 279.230,385.373 278.848,386.000 278.684 C 386.653 278.513,386.800 278.138,386.800 276.641 C 386.800 275.240,386.989 274.689,387.600 274.307 C 388.130 273.976,388.400 273.374,388.400 272.524 C 388.400 271.752,388.661 271.094,389.054 270.874 C 389.476 270.638,389.777 269.783,389.904 268.454 C 390.037 267.075,390.282 266.400,390.651 266.400 C 391.034 266.400,391.200 265.864,391.200 264.633 C 391.200 262.486,391.504 261.600,392.243 261.600 C 392.656 261.600,392.800 260.992,392.800 259.247 C 392.800 257.230,392.914 256.863,393.600 256.684 C 394.304 256.500,394.400 256.138,394.400 253.684 C 394.400 251.230,394.496 250.868,395.200 250.684 C 395.910 250.498,396.000 250.138,396.000 247.484 C 396.000 244.830,396.090 244.470,396.800 244.284 C 397.526 244.094,397.600 243.738,397.600 240.437 C 397.600 237.333,397.717 236.683,398.400 236.000 C 399.111 235.289,399.200 234.667,399.200 230.400 C 399.200 227.467,399.356 225.600,399.600 225.600 C 399.863 225.600,400.000 216.800,400.000 200.000 C 400.000 183.200,399.863 174.400,399.600 174.400 C 399.356 174.400,399.200 172.533,399.200 169.600 C 399.200 165.333,399.111 164.711,398.400 164.000 C 397.717 163.317,397.600 162.667,397.600 159.563 C 397.600 156.262,397.526 155.906,396.800 155.716 C 396.090 155.530,396.000 155.170,396.000 152.516 C 396.000 149.862,395.910 149.502,395.200 149.316 C 394.496 149.132,394.400 148.770,394.400 146.316 C 394.400 143.862,394.304 143.500,393.600 143.316 C 392.914 143.137,392.800 142.770,392.800 140.753 C 392.800 139.008,392.656 138.400,392.243 138.400 C 391.504 138.400,391.200 137.514,391.200 135.367 C 391.200 134.136,391.034 133.600,390.651 133.600 C 390.282 133.600,390.037 132.925,389.904 131.546 C 389.777 130.217,389.476 129.362,389.054 129.126 C 388.661 128.906,388.400 128.248,388.400 127.476 C 388.400 126.626,388.130 126.024,387.600 125.693 C 386.989 125.311,386.800 124.760,386.800 123.359 C 386.800 121.862,386.653 121.487,386.000 121.316 C 385.373 121.152,385.200 120.770,385.200 119.553 C 385.200 118.267,385.063 118.000,384.400 118.000 C 383.737 118.000,383.600 117.733,383.600 116.447 C 383.600 115.230,383.427 114.848,382.800 114.684 C 382.187 114.524,382.000 114.138,382.000 113.037 C 382.000 112.133,381.703 111.303,381.200 110.800 C 380.760 110.360,380.400 109.730,380.400 109.400 C 380.400 109.070,380.040 108.440,379.600 108.000 C 379.160 107.560,378.800 106.883,378.800 106.496 C 378.800 106.109,378.440 105.568,378.000 105.293 C 377.490 104.974,377.200 104.360,377.200 103.597 C 377.200 102.667,377.022 102.400,376.400 102.400 C 375.733 102.400,375.600 102.133,375.600 100.800 C 375.600 99.667,375.430 99.200,375.018 99.200 C 374.672 99.200,374.332 98.644,374.179 97.828 C 374.037 97.073,373.669 96.359,373.361 96.240 C 373.052 96.122,372.800 95.756,372.800 95.427 C 372.800 95.097,372.440 94.635,372.000 94.400 C 371.476 94.120,371.200 93.562,371.200 92.786 C 371.200 91.890,371.015 91.600,370.445 91.600 C 369.896 91.600,369.616 91.211,369.422 90.179 C 369.276 89.397,368.896 88.658,368.578 88.536 C 368.260 88.414,368.000 87.974,368.000 87.557 C 368.000 87.067,367.718 86.800,367.200 86.800 C 366.667 86.800,366.400 86.533,366.400 86.000 C 366.400 85.560,366.040 84.840,365.600 84.400 C 365.160 83.960,364.800 83.313,364.800 82.963 C 364.800 82.612,364.440 82.231,364.000 82.116 C 363.557 82.000,363.200 81.570,363.200 81.153 C 363.200 80.667,362.917 80.400,362.400 80.400 C 361.752 80.400,361.600 80.133,361.600 79.000 C 361.600 77.867,361.448 77.600,360.800 77.600 C 360.267 77.600,360.000 77.333,360.000 76.800 C 360.000 76.267,359.733 76.000,359.200 76.000 C 358.667 76.000,358.400 75.733,358.400 75.200 C 358.400 74.756,358.133 74.400,357.800 74.400 C 357.470 74.400,357.200 74.192,357.200 73.938 C 357.200 73.684,356.750 72.886,356.200 72.164 C 355.650 71.443,355.200 70.571,355.200 70.227 C 355.200 69.882,354.951 69.600,354.647 69.600 C 354.342 69.600,353.999 69.240,353.884 68.800 C 353.769 68.360,353.409 68.000,353.084 68.000 C 352.759 68.000,352.399 67.640,352.284 67.200 C 352.169 66.760,351.788 66.400,351.437 66.400 C 351.067 66.400,350.800 66.065,350.800 65.600 C 350.800 65.067,350.533 64.800,350.000 64.800 C 349.467 64.800,349.200 64.533,349.200 64.000 C 349.200 63.467,348.933 63.200,348.400 63.200 C 347.867 63.200,347.600 62.933,347.600 62.400 C 347.600 61.883,347.333 61.600,346.847 61.600 C 346.430 61.600,346.000 61.243,345.884 60.800 C 345.769 60.360,345.388 60.000,345.037 60.000 C 344.687 60.000,344.400 59.730,344.400 59.400 C 344.400 59.067,344.044 58.800,343.600 58.800 C 343.067 58.800,342.800 58.533,342.800 58.000 C 342.800 57.467,342.533 57.200,342.000 57.200 C 341.467 57.200,341.200 56.933,341.200 56.400 C 341.200 55.960,340.951 55.600,340.647 55.600 C 340.342 55.600,339.999 55.240,339.884 54.800 C 339.769 54.360,339.388 54.000,339.037 54.000 C 338.667 54.000,338.400 53.665,338.400 53.200 C 338.400 52.667,338.133 52.400,337.600 52.400 C 337.067 52.400,336.800 52.133,336.800 51.600 C 336.800 51.067,336.533 50.800,336.000 50.800 C 335.467 50.800,335.200 50.533,335.200 50.000 C 335.200 49.483,334.933 49.200,334.447 49.200 C 334.030 49.200,333.600 48.843,333.484 48.400 C 333.369 47.960,333.009 47.600,332.684 47.600 C 332.359 47.600,331.999 47.240,331.884 46.800 C 331.769 46.360,331.388 46.000,331.037 46.000 C 330.687 46.000,330.400 45.730,330.400 45.400 C 330.400 45.070,330.083 44.800,329.696 44.800 C 329.309 44.800,328.507 44.350,327.913 43.800 C 327.320 43.250,326.557 42.800,326.217 42.800 C 325.878 42.800,325.600 42.530,325.600 42.200 C 325.600 41.867,325.244 41.600,324.800 41.600 C 324.267 41.600,324.000 41.333,324.000 40.800 C 324.000 40.267,323.733 40.000,323.200 40.000 C 322.667 40.000,322.400 39.733,322.400 39.200 C 322.400 38.552,322.133 38.400,321.000 38.400 C 319.867 38.400,319.600 38.248,319.600 37.600 C 319.600 37.083,319.333 36.800,318.847 36.800 C 318.430 36.800,318.000 36.443,317.884 36.000 C 317.769 35.560,317.388 35.200,317.037 35.200 C 316.687 35.200,316.040 34.840,315.600 34.400 C 315.160 33.960,314.440 33.600,314.000 33.600 C 313.467 33.600,313.200 33.333,313.200 32.800 C 313.200 32.282,312.933 32.000,312.443 32.000 C 312.026 32.000,311.586 31.740,311.464 31.422 C 311.342 31.104,310.603 30.724,309.821 30.578 C 308.789 30.384,308.400 30.104,308.400 29.555 C 308.400 28.985,308.110 28.800,307.214 28.800 C 306.438 28.800,305.880 28.524,305.600 28.000 C 305.365 27.560,304.903 27.200,304.573 27.200 C 304.244 27.200,303.878 26.948,303.760 26.639 C 303.641 26.331,302.927 25.963,302.172 25.821 C 301.356 25.668,300.800 25.328,300.800 24.982 C 300.800 24.570,300.333 24.400,299.200 24.400 C 297.867 24.400,297.600 24.267,297.600 23.600 C 297.600 23.067,297.333 22.800,296.800 22.800 C 296.360 22.800,295.640 22.440,295.200 22.000 C 294.760 21.560,294.034 21.200,293.587 21.200 C 293.141 21.200,292.676 20.941,292.554 20.624 C 292.433 20.308,291.790 19.930,291.126 19.784 C 290.462 19.638,289.577 19.177,289.159 18.759 C 288.695 18.295,287.841 18.000,286.963 18.000 C 285.862 18.000,285.476 17.813,285.316 17.200 C 285.152 16.573,284.770 16.400,283.553 16.400 C 282.267 16.400,282.000 16.263,282.000 15.600 C 282.000 14.937,281.733 14.800,280.447 14.800 C 279.230 14.800,278.848 14.627,278.684 14.000 C 278.513 13.348,278.138 13.200,276.652 13.200 C 275.238 13.200,274.732 13.020,274.400 12.400 C 274.113 11.864,273.562 11.600,272.730 11.600 C 272.044 11.600,271.275 11.308,271.011 10.948 C 270.720 10.549,269.730 10.218,268.467 10.097 C 267.078 9.963,266.400 9.718,266.400 9.349 C 266.400 8.966,265.864 8.800,264.633 8.800 C 262.486 8.800,261.600 8.496,261.600 7.757 C 261.600 7.344,260.992 7.200,259.247 7.200 C 257.230 7.200,256.863 7.086,256.684 6.400 C 256.500 5.695,256.138 5.600,253.637 5.600 C 251.067 5.600,250.800 5.525,250.800 4.800 C 250.800 4.068,250.533 4.000,247.647 4.000 C 244.830 4.000,244.471 3.915,244.284 3.200 C 244.093 2.470,243.738 2.400,240.237 2.400 C 237.224 2.400,236.400 2.280,236.400 1.843 C 236.400 0.963,235.457 0.800,230.367 0.800 C 227.456 0.800,225.600 0.644,225.600 0.400 C 225.600 0.138,216.800 0.000,200.000 0.000 C 183.200 0.000,174.400 0.138,174.400 0.400 M127.938 88.497 C 129.773 88.815,131.393 89.260,131.538 89.487 C 131.682 89.714,132.373 90.024,133.072 90.175 C 133.772 90.327,134.559 90.710,134.821 91.026 C 135.083 91.342,135.531 91.600,135.815 91.600 C 136.816 91.600,141.167 95.740,142.723 98.173 C 145.102 101.892,145.596 103.251,146.864 109.546 C 148.322 116.792,141.572 129.798,135.336 131.759 C 134.861 131.909,134.254 132.294,133.987 132.615 C 133.720 132.937,133.170 133.200,132.763 133.200 C 132.357 133.200,131.271 133.593,130.351 134.072 C 128.805 134.878,128.107 134.945,121.239 134.943 C 113.492 134.940,113.087 134.870,108.600 132.747 C 105.213 131.144,100.769 127.310,99.410 124.818 C 97.659 121.607,96.400 118.719,96.401 117.917 C 96.402 117.413,96.103 115.767,95.737 114.260 C 95.117 111.704,95.117 111.329,95.741 108.660 C 96.109 107.087,96.408 105.424,96.405 104.964 C 96.401 104.250,97.329 102.225,99.484 98.251 C 100.052 97.204,103.499 93.619,104.622 92.907 C 105.050 92.636,106.080 91.964,106.910 91.412 C 107.741 90.861,108.911 90.289,109.510 90.142 C 110.110 89.994,110.960 89.651,111.400 89.379 C 111.840 89.107,113.264 88.759,114.565 88.605 C 115.866 88.452,117.306 88.168,117.765 87.974 C 118.851 87.516,123.719 87.766,127.938 88.497 M265.400 150.501 C 266.060 150.883,267.186 151.196,267.901 151.198 C 268.617 151.199,269.875 151.560,270.696 152.000 C 271.516 152.440,272.568 152.800,273.033 152.800 C 273.497 152.800,274.293 153.160,274.800 153.600 C 275.307 154.040,276.031 154.400,276.407 154.400 C 276.784 154.400,277.550 154.760,278.109 155.200 C 278.669 155.640,279.227 156.000,279.351 156.000 C 280.504 156.000,291.200 165.093,291.200 166.074 C 291.200 166.229,291.834 167.040,292.609 167.878 C 293.384 168.715,294.124 169.805,294.252 170.300 C 294.381 170.795,294.625 171.200,294.793 171.200 C 295.138 171.200,298.596 178.059,299.028 179.600 C 299.182 180.150,299.554 180.955,299.854 181.389 C 300.154 181.823,300.400 182.568,300.400 183.045 C 300.400 183.522,300.756 184.697,301.191 185.656 C 301.626 186.615,301.986 188.053,301.991 188.851 C 301.996 189.649,302.292 190.999,302.648 191.851 C 303.030 192.762,303.429 195.378,303.617 198.200 C 303.792 200.840,304.138 205.430,304.384 208.400 C 305.239 218.694,304.772 285.727,303.838 286.758 C 302.688 288.029,259.892 288.094,259.214 286.826 C 258.937 286.309,258.800 273.985,258.800 249.670 C 258.800 220.037,258.695 212.705,258.234 210.144 C 257.922 208.415,257.549 205.842,257.406 204.428 C 257.262 203.013,256.887 201.488,256.572 201.039 C 256.257 200.589,256.000 199.891,256.000 199.486 C 256.000 198.593,254.138 194.577,253.245 193.544 C 252.476 192.655,249.266 189.453,248.358 188.670 C 248.005 188.365,247.195 187.986,246.558 187.827 C 245.921 187.668,245.066 187.237,244.658 186.869 C 243.549 185.869,230.051 185.869,228.942 186.869 C 228.534 187.237,227.673 187.669,227.030 187.830 C 224.553 188.448,219.804 192.426,217.854 195.515 C 217.292 196.405,216.645 197.249,216.416 197.390 C 216.187 197.531,216.000 197.969,216.000 198.362 C 216.000 198.756,215.665 199.464,215.255 199.937 C 214.845 200.410,214.394 201.634,214.254 202.658 C 214.114 203.682,213.774 204.790,213.499 205.121 C 213.109 205.591,212.978 214.462,212.899 245.761 C 212.843 267.783,212.705 286.205,212.591 286.700 L 212.385 287.600 190.421 287.600 C 166.915 287.600,167.225 287.626,167.187 285.671 C 166.924 272.219,167.315 153.325,167.623 153.016 C 168.245 152.394,211.500 152.219,212.243 152.836 C 212.681 153.199,212.806 154.896,212.828 160.749 C 212.844 164.847,213.011 168.560,213.200 169.000 C 213.389 169.440,213.556 169.555,213.572 169.256 C 213.700 166.781,226.635 155.059,230.235 154.155 C 230.766 154.022,231.200 153.760,231.200 153.572 C 231.200 153.384,231.960 153.026,232.888 152.776 C 233.817 152.526,234.937 152.069,235.377 151.761 C 235.818 151.452,236.640 151.200,237.204 151.200 C 237.769 151.200,239.214 150.841,240.415 150.402 C 243.482 149.283,263.429 149.362,265.400 150.501 M143.500 152.924 C 144.157 153.349,144.241 285.601,143.586 286.826 C 143.123 287.692,100.145 288.059,98.800 287.208 C 98.202 286.831,97.605 156.142,98.190 153.728 C 98.308 153.239,98.796 152.776,99.301 152.676 C 100.908 152.354,142.985 152.590,143.500 152.924 " stroke="none" fill="#040404" fill-rule="evenodd"></path><path id="path2" d="M115.000 89.173 C 93.486 93.530,89.409 123.720,109.200 132.125 C 114.239 134.264,113.873 134.200,120.987 134.200 C 135.188 134.200,143.800 127.579,145.707 115.197 C 147.083 106.255,141.998 94.931,135.360 92.157 C 134.642 91.857,133.950 91.443,133.823 91.237 C 133.695 91.030,133.051 90.743,132.391 90.598 C 131.732 90.453,130.619 90.049,129.920 89.700 C 128.473 88.978,117.820 88.602,115.000 89.173 M129.254 90.116 C 129.774 90.443,130.857 90.825,131.660 90.966 C 132.463 91.106,133.340 91.486,133.609 91.811 C 133.878 92.135,134.307 92.400,134.562 92.400 C 136.622 92.400,142.056 98.734,144.000 103.400 C 145.421 106.810,145.466 117.246,144.071 119.785 C 143.592 120.656,143.200 121.691,143.200 122.085 C 143.200 122.478,143.014 122.800,142.787 122.800 C 142.561 122.800,142.258 123.115,142.114 123.500 C 140.961 126.598,134.133 131.836,130.314 132.552 C 129.500 132.705,128.331 133.092,127.717 133.412 C 125.898 134.361,116.802 134.221,113.896 133.200 C 112.644 132.760,111.329 132.400,110.973 132.400 C 110.617 132.400,109.869 132.040,109.309 131.600 C 108.750 131.160,108.046 130.800,107.746 130.800 C 107.115 130.800,106.532 130.321,102.990 126.895 C 101.565 125.517,100.396 124.167,100.391 123.895 C 100.386 123.623,100.030 122.950,99.600 122.400 C 99.170 121.850,98.808 121.130,98.795 120.800 C 98.783 120.470,98.425 119.480,98.000 118.600 C 96.997 116.525,96.839 106.712,97.775 104.660 C 98.091 103.967,98.638 102.770,98.989 102.000 C 100.211 99.325,100.830 98.442,102.965 96.327 C 105.918 93.402,106.682 92.800,108.032 92.329 C 108.674 92.105,109.200 91.775,109.200 91.596 C 109.200 91.417,109.965 91.147,110.900 90.997 C 111.835 90.846,112.980 90.483,113.444 90.189 C 115.221 89.065,127.491 89.008,129.254 90.116 M244.200 150.386 C 230.711 153.141,223.074 157.732,215.576 167.594 C 212.640 171.457,212.631 171.442,212.400 161.767 L 212.200 153.400 191.000 153.289 C 179.340 153.228,169.440 153.266,169.000 153.372 C 167.956 153.624,167.708 284.884,168.749 286.138 C 169.493 287.035,211.198 287.166,211.938 286.274 C 212.245 285.904,212.410 273.664,212.495 244.974 L 212.615 204.200 213.519 202.000 C 222.486 180.176,250.577 178.719,256.917 199.748 C 259.055 206.839,258.975 205.183,259.194 246.800 C 259.307 268.250,259.546 286.025,259.724 286.300 C 260.324 287.228,302.091 287.004,302.938 286.069 C 304.412 284.440,303.735 199.824,302.194 193.063 C 300.334 184.905,299.633 182.385,298.952 181.411 C 298.648 180.977,298.400 180.326,298.400 179.964 C 298.400 178.392,293.188 169.334,290.614 166.432 C 288.311 163.836,284.312 160.048,282.858 159.086 C 278.451 156.170,276.674 155.116,275.502 154.722 C 274.786 154.481,274.020 154.146,273.800 153.978 C 273.296 153.592,267.884 151.901,264.200 150.978 C 261.092 150.199,247.138 149.787,244.200 150.386 M260.003 150.830 C 260.771 151.067,262.840 151.504,264.600 151.800 C 267.881 152.354,270.548 153.156,273.444 154.460 C 274.348 154.867,275.271 155.200,275.495 155.200 C 275.719 155.200,276.117 155.458,276.379 155.774 C 276.641 156.090,277.383 156.464,278.028 156.606 C 278.672 156.748,279.200 157.019,279.200 157.210 C 279.200 157.400,279.625 157.791,280.144 158.078 C 283.217 159.776,287.435 163.494,290.786 167.457 C 291.767 168.618,294.800 173.242,294.800 173.577 C 294.800 173.750,295.137 174.321,295.548 174.846 C 295.959 175.371,296.421 176.373,296.574 177.072 C 296.726 177.772,297.110 178.559,297.426 178.821 C 297.742 179.083,298.000 179.684,298.000 180.155 C 298.000 180.626,298.333 181.639,298.739 182.406 C 299.146 183.173,299.594 184.541,299.735 185.447 C 299.877 186.353,300.263 187.613,300.594 188.247 C 300.924 188.881,301.196 190.127,301.198 191.016 C 301.199 191.905,301.515 193.705,301.900 195.016 C 302.548 197.223,302.600 200.680,302.600 241.600 L 302.600 285.800 281.426 285.904 C 264.752 285.985,260.184 285.900,259.932 285.504 C 259.756 285.227,259.609 267.501,259.606 246.114 C 259.601 213.514,259.508 206.951,259.029 205.514 C 258.715 204.571,258.336 202.900,258.186 201.800 C 258.036 200.700,257.691 199.440,257.420 199.000 C 257.149 198.560,256.805 197.706,256.656 197.102 C 255.848 193.820,251.376 188.881,247.221 186.681 C 242.095 183.966,232.150 183.846,227.121 186.438 C 226.307 186.857,225.390 187.200,225.083 187.200 C 224.775 187.200,224.198 187.560,223.800 188.000 C 223.402 188.440,222.908 188.800,222.703 188.800 C 221.774 188.800,215.200 196.299,215.200 197.358 C 215.200 197.532,214.840 198.131,214.400 198.691 C 213.960 199.250,213.600 200.050,213.600 200.468 C 213.600 200.886,213.285 201.709,212.900 202.296 C 212.248 203.291,212.186 206.200,212.000 244.582 L 211.800 285.800 190.400 285.800 L 169.000 285.800 168.899 219.700 L 168.798 153.600 190.399 153.600 L 212.000 153.600 212.000 161.938 C 212.000 169.653,212.057 170.328,212.768 170.971 C 213.503 171.636,213.558 171.625,214.034 170.733 C 215.896 167.238,224.855 158.000,226.382 158.000 C 226.612 158.000,226.800 157.822,226.800 157.605 C 226.800 157.388,227.385 156.942,228.100 156.613 C 228.815 156.285,229.670 155.832,230.000 155.608 C 230.330 155.383,231.050 155.020,231.600 154.801 C 232.150 154.581,232.870 154.248,233.200 154.059 C 234.431 153.355,237.895 152.321,240.800 151.790 C 242.450 151.488,244.340 151.068,245.000 150.855 C 246.656 150.322,258.289 150.303,260.003 150.830 M99.070 153.463 C 98.637 153.896,98.757 285.313,99.191 286.000 C 99.669 286.756,141.027 287.135,142.408 286.396 C 143.196 285.974,143.202 285.452,143.101 219.685 L 143.000 153.400 121.170 153.297 C 109.164 153.240,99.219 153.315,99.070 153.463 M142.703 219.400 C 142.799 280.720,142.761 285.033,142.126 285.500 C 141.244 286.150,101.180 286.231,99.974 285.586 C 99.187 285.165,98.688 154.646,99.470 153.863 C 99.619 153.715,109.384 153.640,121.170 153.697 L 142.600 153.800 142.703 219.400 " stroke="none" fill="#8c8c8c" fill-rule="evenodd"></path><path id="path3" d="M117.765 87.974 C 117.306 88.168,115.866 88.452,114.565 88.605 C 113.264 88.759,111.840 89.107,111.400 89.379 C 110.960 89.651,110.110 89.994,109.510 90.142 C 108.911 90.289,107.741 90.861,106.910 91.412 C 106.080 91.964,105.050 92.636,104.622 92.907 C 103.499 93.619,100.052 97.204,99.484 98.251 C 97.329 102.225,96.401 104.250,96.405 104.964 C 96.408 105.424,96.109 107.087,95.741 108.660 C 95.117 111.329,95.117 111.704,95.737 114.260 C 96.103 115.767,96.402 117.413,96.401 117.917 C 96.400 118.719,97.659 121.607,99.410 124.818 C 100.769 127.310,105.213 131.144,108.600 132.747 C 113.087 134.870,113.492 134.940,121.239 134.943 C 128.107 134.945,128.805 134.878,130.351 134.072 C 131.271 133.593,132.357 133.200,132.763 133.200 C 133.170 133.200,133.720 132.937,133.987 132.615 C 134.254 132.294,134.861 131.909,135.336 131.759 C 141.572 129.798,148.322 116.792,146.864 109.546 C 145.596 103.251,145.102 101.892,142.723 98.173 C 141.167 95.740,136.816 91.600,135.815 91.600 C 135.531 91.600,135.083 91.342,134.821 91.026 C 134.559 90.710,133.772 90.327,133.072 90.175 C 132.373 90.024,131.682 89.714,131.538 89.487 C 130.918 88.513,119.469 87.255,117.765 87.974 M126.394 88.813 C 129.209 89.178,133.054 90.420,134.400 91.398 C 134.730 91.638,135.523 92.097,136.161 92.417 C 144.486 96.595,148.690 111.208,144.374 120.966 C 135.374 141.311,100.881 138.525,96.781 117.121 C 93.306 98.984,106.629 86.249,126.394 88.813 M240.415 150.402 C 239.214 150.841,237.769 151.200,237.204 151.200 C 236.640 151.200,235.818 151.452,235.377 151.761 C 234.937 152.069,233.817 152.526,232.888 152.776 C 231.960 153.026,231.200 153.384,231.200 153.572 C 231.200 153.760,230.766 154.022,230.235 154.155 C 226.635 155.059,213.700 166.781,213.572 169.256 C 213.556 169.555,213.389 169.440,213.200 169.000 C 213.011 168.560,212.844 164.847,212.828 160.749 C 212.806 154.896,212.681 153.199,212.243 152.836 C 211.500 152.219,168.245 152.394,167.623 153.016 C 167.315 153.325,166.924 272.219,167.187 285.671 C 167.225 287.626,166.915 287.600,190.421 287.600 L 212.385 287.600 212.602 286.700 C 212.722 286.205,212.769 268.880,212.708 248.200 L 212.596 210.600 212.498 248.510 L 212.400 286.420 211.374 286.810 C 209.197 287.637,169.818 287.304,168.762 286.449 L 167.835 285.699 167.817 219.668 L 167.800 153.638 168.719 153.219 C 169.708 152.768,210.615 152.601,211.767 153.043 C 212.313 153.252,212.400 154.318,212.400 160.817 C 212.400 168.598,212.807 171.419,213.695 169.800 C 217.245 163.331,226.768 155.673,235.200 152.506 C 241.380 150.185,256.573 149.011,262.200 150.419 C 263.080 150.640,264.970 151.075,266.400 151.386 C 269.078 151.969,272.906 153.210,274.242 153.928 C 274.659 154.152,275.810 154.725,276.800 155.201 C 282.108 157.755,290.109 164.781,293.370 169.753 C 295.007 172.250,298.383 178.727,298.397 179.400 C 298.401 179.620,298.673 180.315,299.001 180.944 C 300.548 183.909,302.777 193.736,303.233 199.600 C 303.987 209.302,303.666 285.816,302.869 286.538 C 301.643 287.647,260.210 287.540,259.614 286.426 C 259.338 285.910,259.196 273.453,259.187 248.926 C 259.174 213.101,259.089 210.228,257.853 204.000 C 255.032 189.782,245.683 183.258,231.715 185.759 C 221.900 187.516,212.592 198.200,212.874 207.386 L 212.948 209.800 213.098 207.612 C 213.180 206.409,213.417 205.221,213.623 204.972 C 213.830 204.723,214.114 203.682,214.254 202.658 C 214.394 201.634,214.845 200.410,215.255 199.937 C 215.665 199.464,216.000 198.756,216.000 198.362 C 216.000 197.969,216.187 197.531,216.416 197.390 C 216.645 197.249,217.292 196.405,217.854 195.515 C 219.804 192.426,224.553 188.448,227.030 187.830 C 227.673 187.669,228.534 187.237,228.942 186.869 C 230.051 185.869,243.549 185.869,244.658 186.869 C 245.066 187.237,245.921 187.668,246.558 187.827 C 247.195 187.986,248.005 188.365,248.358 188.670 C 249.266 189.453,252.476 192.655,253.245 193.544 C 254.138 194.577,256.000 198.593,256.000 199.486 C 256.000 199.891,256.257 200.589,256.572 201.039 C 256.887 201.488,257.262 203.013,257.406 204.428 C 257.549 205.842,257.922 208.415,258.234 210.144 C 258.695 212.705,258.800 220.037,258.800 249.670 C 258.800 273.985,258.937 286.309,259.214 286.826 C 259.892 288.094,302.688 288.029,303.838 286.758 C 304.772 285.727,305.239 218.694,304.384 208.400 C 304.138 205.430,303.792 200.840,303.617 198.200 C 303.429 195.378,303.030 192.762,302.648 191.851 C 302.292 190.999,301.996 189.649,301.991 188.851 C 301.986 188.053,301.626 186.615,301.191 185.656 C 300.756 184.697,300.400 183.522,300.400 183.045 C 300.400 182.568,300.154 181.823,299.854 181.389 C 299.554 180.955,299.182 180.150,299.028 179.600 C 298.596 178.059,295.138 171.200,294.793 171.200 C 294.625 171.200,294.381 170.795,294.252 170.300 C 294.124 169.805,293.384 168.715,292.609 167.878 C 291.834 167.040,291.200 166.229,291.200 166.074 C 291.200 165.093,280.504 156.000,279.351 156.000 C 279.227 156.000,278.669 155.640,278.109 155.200 C 277.550 154.760,276.784 154.400,276.407 154.400 C 276.031 154.400,275.307 154.040,274.800 153.600 C 274.293 153.160,273.497 152.800,273.033 152.800 C 272.568 152.800,271.516 152.440,270.696 152.000 C 269.875 151.560,268.617 151.199,267.901 151.198 C 267.186 151.196,266.060 150.883,265.400 150.501 C 263.429 149.362,243.482 149.283,240.415 150.402 M99.301 152.676 C 98.796 152.776,98.308 153.239,98.190 153.728 C 97.605 156.142,98.202 286.831,98.800 287.208 C 100.145 288.059,143.123 287.692,143.586 286.826 C 144.241 285.601,144.157 153.349,143.500 152.924 C 142.985 152.590,100.908 152.354,99.301 152.676 M143.100 153.324 C 143.894 153.837,143.827 285.137,143.032 286.224 C 142.306 287.217,100.103 287.463,99.120 286.480 C 98.594 285.954,98.075 156.254,98.590 154.128 C 98.708 153.639,99.196 153.176,99.701 153.076 C 101.307 152.754,142.585 152.990,143.100 153.324 " stroke="none" fill="#5e5e5e" fill-rule="evenodd"></path><path id="path4" d="M119.911 88.693 C 120.851 88.778,122.291 88.777,123.111 88.691 C 123.930 88.605,123.160 88.536,121.400 88.537 C 119.640 88.539,118.970 88.609,119.911 88.693 M119.511 134.693 C 120.451 134.778,121.891 134.777,122.711 134.691 C 123.530 134.605,122.760 134.536,121.000 134.537 C 119.240 134.539,118.570 134.609,119.511 134.693 M110.728 153.100 C 116.518 153.162,125.878 153.162,131.528 153.100 C 137.178 153.037,132.440 152.986,121.000 152.986 C 109.560 152.986,104.938 153.037,110.728 153.100 M179.700 153.100 C 185.585 153.162,195.215 153.162,201.100 153.100 C 206.985 153.037,202.170 152.986,190.400 152.986 C 178.630 152.986,173.815 153.037,179.700 153.100 M143.200 219.520 L 143.400 285.800 143.501 219.821 C 143.557 183.533,143.467 153.707,143.301 153.541 C 143.136 153.376,143.090 183.066,143.200 219.520 M167.744 157.200 C 167.744 159.290,167.812 160.145,167.894 159.100 C 167.976 158.055,167.976 156.345,167.894 155.300 C 167.812 154.255,167.744 155.110,167.744 157.200 M98.595 219.600 C 98.595 255.790,98.642 270.595,98.700 252.500 C 98.758 234.405,98.758 204.795,98.700 186.700 C 98.642 168.605,98.595 183.410,98.595 219.600 M168.192 206.400 C 168.192 226.750,168.240 235.075,168.300 224.900 C 168.359 214.725,168.359 198.075,168.300 187.900 C 168.240 177.725,168.192 186.050,168.192 206.400 M235.907 185.090 C 236.626 185.179,237.706 185.177,238.307 185.086 C 238.908 184.995,238.320 184.922,237.000 184.924 C 235.680 184.926,235.188 185.001,235.907 185.090 M303.328 204.800 C 303.328 206.230,303.401 206.815,303.489 206.100 C 303.578 205.385,303.578 204.215,303.489 203.500 C 303.401 202.785,303.328 203.370,303.328 204.800 M212.524 208.600 C 212.526 209.920,212.601 210.412,212.690 209.693 C 212.779 208.974,212.777 207.894,212.686 207.293 C 212.595 206.692,212.522 207.280,212.524 208.600 M258.901 209.800 C 258.905 210.680,258.987 210.993,259.083 210.495 C 259.179 209.998,259.175 209.278,259.075 208.895 C 258.975 208.513,258.896 208.920,258.901 209.800 M167.692 275.838 C 167.601 285.395,167.608 285.482,168.500 286.238 C 169.398 286.998,169.398 286.998,168.707 286.177 C 168.101 285.455,168.001 284.168,167.900 275.777 L 167.785 266.200 167.692 275.838 M302.794 286.207 C 302.354 286.738,299.629 286.800,280.983 286.707 C 269.264 286.648,259.760 286.735,259.862 286.900 C 260.365 287.714,302.250 287.229,303.000 286.400 C 303.398 285.960,303.628 285.600,303.511 285.600 C 303.394 285.600,303.071 285.873,302.794 286.207 M110.900 287.100 C 116.565 287.162,125.835 287.162,131.500 287.100 C 137.165 287.037,132.530 286.986,121.200 286.986 C 109.870 286.986,105.235 287.037,110.900 287.100 M179.928 287.100 C 185.718 287.162,195.078 287.162,200.728 287.100 C 206.378 287.037,201.640 286.986,190.200 286.986 C 178.760 286.986,174.138 287.037,179.928 287.100 " stroke="none" fill="#7c7c7c" fill-rule="evenodd"></path></g></svg>