<svg id="svg" version="1.1" xmlns="http://www.w3.org/2000/svg" xmlns:xlink="http://www.w3.org/1999/xlink" width="400" height="399.60039960039967" viewBox="0, 0, 400,399.60039960039967"><g id="svgg"><path id="path0" d="M199.800 199.832 L 199.800 290.573 201.099 290.295 C 203.076 289.873,208.351 288.188,212.623 286.615 L 216.456 285.205 216.304 283.362 C 216.016 279.850,205.395 111.216,205.395 110.156 C 205.395 109.104,205.361 109.091,202.597 109.091 L 199.800 109.091 199.800 199.832 M210.171 109.551 C 210.108 111.330,228.430 278.920,228.687 278.920 C 229.436 278.922,242.188 269.741,242.151 269.226 C 242.093 268.416,215.408 109.783,215.315 109.699 C 214.776 109.208,210.188 109.076,210.171 109.551 M219.978 110.785 C 220.097 111.282,227.211 144.505,235.788 184.615 C 244.364 224.725,251.509 258.033,251.665 258.632 C 251.983 259.855,254.925 256.583,259.843 249.536 L 262.084 246.325 243.488 178.607 C 233.261 141.362,224.776 110.777,224.634 110.640 C 223.736 109.776,219.767 109.899,219.978 110.785 M229.352 111.346 C 229.316 112.027,268.305 233.766,268.559 233.766 C 268.957 233.766,272.025 225.568,273.349 220.966 C 274.555 216.778,274.780 215.564,274.172 216.522 C 273.919 216.921,273.727 216.766,273.427 215.923 C 272.035 212.011,234.815 113.163,234.534 112.634 C 234.332 112.253,233.416 111.866,232.328 111.703 C 231.304 111.550,230.221 111.330,229.919 111.214 C 229.617 111.098,229.362 111.158,229.352 111.346 M239.487 113.624 C 239.588 113.878,247.918 133.768,257.997 157.824 L 276.324 201.561 276.430 191.000 L 276.537 180.438 261.079 148.061 C 252.577 130.254,245.337 115.393,244.989 115.037 C 244.194 114.226,239.219 112.947,239.487 113.624 M161.605 176.309 L 159.584 182.418 152.865 182.527 L 146.146 182.637 151.458 186.420 C 154.380 188.501,156.830 190.263,156.902 190.335 C 156.974 190.408,156.139 193.138,155.045 196.404 C 153.951 199.669,153.114 202.398,153.184 202.468 C 153.254 202.538,155.365 201.053,157.875 199.168 C 160.384 197.282,162.746 195.572,163.123 195.366 C 163.663 195.071,164.881 195.791,168.897 198.781 C 171.697 200.865,174.039 202.518,174.102 202.455 C 174.165 202.392,173.320 199.663,172.223 196.390 C 171.127 193.117,170.230 190.424,170.230 190.405 C 170.230 190.386,172.652 188.671,175.612 186.594 L 180.994 182.817 174.346 182.617 L 167.698 182.418 165.662 176.309 L 163.627 170.201 161.605 176.309 M276.238 203.596 C 276.241 204.695,276.319 205.097,276.411 204.490 C 276.502 203.883,276.500 202.983,276.405 202.492 C 276.310 202.001,276.235 202.498,276.238 203.596 " stroke="none" fill="#fbfafa" fill-rule="evenodd"></path><path id="path1" d="M190.010 108.974 C 167.969 110.179,143.341 116.600,126.859 125.438 L 123.277 127.359 123.277 166.477 C 123.277 209.991,123.186 208.276,126.086 219.636 C 134.449 252.394,162.101 280.649,194.482 289.524 C 197.262 290.286,199.596 290.909,199.669 290.909 C 199.741 290.909,199.800 249.910,199.800 199.800 L 199.800 108.691 196.104 108.767 C 194.071 108.808,191.329 108.901,190.010 108.974 M205.586 111.389 C 205.787 113.662,216.586 283.737,216.584 284.615 C 216.584 284.780,216.831 284.915,217.135 284.915 C 218.521 284.915,228.160 279.853,228.167 279.121 C 228.170 278.901,224.044 240.613,219.000 194.037 C 213.955 147.461,209.920 109.204,210.032 109.022 C 210.145 108.840,209.137 108.691,207.792 108.691 L 205.346 108.691 205.586 111.389 M215.625 109.790 C 215.716 110.175,221.731 145.997,228.991 189.395 C 236.252 232.793,242.262 268.369,242.346 268.453 C 242.492 268.599,251.120 260.833,251.507 260.207 C 251.609 260.042,244.514 226.378,235.741 185.398 C 226.968 144.418,219.788 110.598,219.785 110.242 C 219.782 109.806,219.291 109.514,218.282 109.347 C 215.871 108.949,215.443 109.020,215.625 109.790 M224.936 110.947 C 225.167 111.355,233.564 141.628,243.596 178.222 C 253.628 214.815,261.923 244.905,262.031 245.088 C 262.274 245.502,262.982 244.342,265.929 238.708 L 268.256 234.260 248.558 172.574 C 237.725 138.648,228.841 110.864,228.816 110.834 C 228.316 110.224,224.588 110.332,224.936 110.947 M234.632 112.225 C 234.705 112.410,243.569 135.975,254.330 164.591 C 269.527 205.006,273.967 216.425,274.219 215.745 C 274.657 214.561,275.618 208.282,275.925 204.595 L 276.175 201.598 257.768 157.701 C 247.644 133.557,239.361 113.567,239.361 113.278 C 239.361 112.971,238.522 112.574,237.343 112.321 C 234.914 111.800,234.458 111.784,234.632 112.225 M246.657 117.582 C 247.531 119.396,254.134 133.198,261.330 148.255 C 268.525 163.312,274.879 176.529,275.449 177.626 L 276.486 179.620 276.505 153.413 L 276.523 127.205 270.629 124.175 C 262.829 120.163,247.908 114.286,245.525 114.286 C 245.271 114.286,245.776 115.758,246.657 117.582 M165.896 176.224 L 168.013 182.617 174.766 182.617 L 181.519 182.617 176.074 186.472 C 173.080 188.593,170.629 190.442,170.629 190.583 C 170.629 190.724,171.526 193.517,172.623 196.789 C 173.719 200.062,174.544 202.812,174.455 202.901 C 174.366 202.990,172.002 201.340,169.202 199.234 C 163.078 194.628,164.304 194.628,158.099 199.232 C 155.273 201.328,152.892 202.975,152.809 202.892 C 152.725 202.808,153.554 200.062,154.650 196.789 C 155.746 193.517,156.643 190.715,156.643 190.563 C 156.643 190.412,154.261 188.607,151.349 186.552 L 146.054 182.817 152.660 182.708 L 159.266 182.599 161.380 176.215 C 162.543 172.703,163.558 169.830,163.636 169.830 C 163.715 169.830,164.732 172.707,165.896 176.224 " stroke="none" fill="#ac513a" fill-rule="evenodd"></path><path id="path2" d="" stroke="none" fill="#bb745f" fill-rule="evenodd"></path><path id="path3" d="" stroke="none" fill="#d49c8c" fill-rule="evenodd"></path><path id="path4" d="" stroke="none" fill="#cc8c7c" fill-rule="evenodd"></path></g></svg>